<svg xmlns="http://www.w3.org/2000/svg" fill="none" viewBox="0 0 24 24"><path fill="#343A40" fill-rule="evenodd" d="M1.25 9.01688C1.25 7.49809 2.48122 6.26688 4 6.26688H14C15.5188 6.26688 16.75 7.49809 16.75 9.01688V15.0169C16.75 16.5357 15.5188 17.7669 14 17.7669H13.063C12.6487 17.7669 12.313 17.4311 12.313 17.0169C12.313 16.6027 12.6487 16.2669 13.063 16.2669H14C14.6904 16.2669 15.25 15.7072 15.25 15.0169V9.01688C15.25 8.32652 14.6904 7.76688 14 7.76688H4C3.30964 7.76688 2.75 8.32652 2.75 9.01688V15.0169C2.75 15.7072 3.30964 16.2669 4 16.2669H4.96039C5.3746 16.2669 5.71039 16.6027 5.71039 17.0169C5.71039 17.4311 5.3746 17.7669 4.96039 17.7669H4C2.48122 17.7669 1.25 16.5357 1.25 15.0169V9.01688Z" clip-rule="evenodd"/><path fill="#343A40" fill-rule="evenodd" d="M22.4399 7.40942C22.6347 7.55047 22.75 7.77638 22.75 8.01688V16.0169C22.75 16.2591 22.633 16.4865 22.4359 16.6272 22.2387 16.768 21.9857 16.8049 21.7566 16.7263L15.7566 14.6675C15.4535 14.5635 15.25 14.2785 15.25 13.9581V9.98747C15.25 9.66343 15.4581 9.37603 15.766 9.27492L21.766 7.30433C21.9945 7.22929 22.2451 7.26837 22.4399 7.40942zM16.75 10.5306V13.4225L21.25 14.9666V9.05262L16.75 10.5306zM3.25 7.01688C3.25 4.39352 5.37665 2.26688 8 2.26688H14.5C14.9142 2.26688 15.25 2.60266 15.25 3.01688 15.25 3.43109 14.9142 3.76688 14.5 3.76688H8C6.20507 3.76688 4.75 5.22195 4.75 7.01688H3.25z" clip-rule="evenodd"/><path fill="#FFC107" fill-rule="evenodd" d="M8.7685 12.7669C8.05206 12.7669 7.43452 13.1975 7.16379 13.8172 6.99795 14.1967 6.55581 14.37 6.17624 14.2041 5.79668 14.0383 5.62342 13.5962 5.78926 13.2166 6.29009 12.0703 7.43463 11.2669 8.7685 11.2669 10.5634 11.2669 12.0185 12.722 12.0185 14.5169 12.0185 16.0537 10.9519 17.3413 9.5185 17.6799L9.5185 18.5169C9.5185 18.9311 9.18271 19.2669 8.7685 19.2669 8.35429 19.2669 8.0185 18.9311 8.0185 18.5169L8.0185 17.0169C8.0185 16.6027 8.35429 16.2669 8.7685 16.2669 9.735 16.2669 10.5185 15.4834 10.5185 14.5169 10.5185 13.5504 9.735 12.7669 8.7685 12.7669zM8.87251 19.7331C9.28673 19.7331 9.62251 20.0689 9.62251 20.4831V20.9831C9.62251 21.3973 9.28673 21.7331 8.87251 21.7331 8.4583 21.7331 8.12251 21.3973 8.12251 20.9831V20.4831C8.12251 20.0689 8.4583 19.7331 8.87251 19.7331z" clip-rule="evenodd"/></svg>